<?xml version="1.0" encoding="UTF-8"?>
<svg xmlns="http://www.w3.org/2000/svg" id="Layer_1" data-name="Layer 1" viewBox="0 0 24 24" width="512" height="512"><path d="M12,0C5.383,0,0,5.383,0,12s5.383,12,12,12h12V12C24,5.383,18.617,0,12,0Zm10,22H12c-5.514,0-10-4.486-10-10S6.486,2,12,2s10,4.486,10,10v10Zm-6.063-13.717c.298,1.698-.509,3.396-2.009,4.222-.468,.259-.928,1.126-.928,1.752v.743h-2v-.743c0-1.189,.734-2.825,1.962-3.503,.764-.421,1.158-1.255,1.005-2.125-.138-.786-.81-1.458-1.597-1.596-.606-.107-1.194,.047-1.655,.434-.455,.382-.715,.94-.715,1.533h-2c0-1.185,.521-2.302,1.429-3.064,.908-.762,2.109-1.075,3.287-.873,1.613,.283,2.938,1.607,3.221,3.221Zm-4.937,8.717h2v2h-2v-2Z"/></svg>
